#!OML:ASF H:\MichaelJackson\Top Level 1\Subject 1\Session 1\male.ASF
:FULLY-SPECIFIED
:DEGREES
83
root 19.543 16.8387 -18.4162 7.01982 6.51436 -0.606169
lowerback -2.91753 5.20817 -1.16097
upperback -2.8261 6.98223 0.875863
thorax -1.52482 3.52799 1.63349
lowerneck -0.183656 13.6562 8.9562
upperneck 8.68372 18.856 -7.88018
head 4.22641 9.36917 -2.82919
rclavicle 5.42457e-014 6.36111e-015
rhumerus -60.8917 5.29022 -93.3717
rradius 84.729
rwrist 23.3937
rhand 4.04394 -18.6975
rfingers 7.12502
rthumb 29.4576 -46.3816
lclavicle 5.42457e-014 6.36111e-015
lhumerus -60.5292 -41.9939 128.743
lradius 66.9188
lwrist 13.0799
lhand 28.018 35.4082
lfingers 7.12502
lthumb 51.9165 55.5633
rfemur -17.117 8.25503 19.3889
rtibia 31.7619
rfoot -24.5596 -27.6805
rtoes 10.6346
lfemur -17.7105 -1.84934 -13.5449
ltibia 31.2793
lfoot -23.7243 0.868923
ltoes 25.3981
84
root 19.5694 16.8418 -18.423 7.12013 6.3753 -0.62138
lowerback -3.02418 5.24333 -1.2587
upperback -2.8678 7.03211 0.88586
thorax -1.5236 3.5554 1.70518
lowerneck -0.471855 13.6258 9.09677
upperneck 9.44332 18.8562 -7.92951
head 4.5237 9.35628 -2.81205
rclavicle -9.47613e-014 -6.36111e-015
rhumerus -60.6329 5.5202 -93.6576
rradius 84.8519
rwrist 21.4584
rhand 3.56375 -18.8308
rfingers 7.12502
rthumb 28.9991 -46.5947
lclavicle -9.47613e-014 -6.36111e-015
lhumerus -60.3126 -42.0092 128.791
lradius 66.7582
lwrist 13.3206
lhand 28.5832 36.1789
lfingers 7.12502
lthumb 52.4287 56.0264
rfemur -17.215 8.51415 19.2615
rtibia 31.6705
rfoot -24.4427 -27.7594
rtoes 10.6078
lfemur -17.7791 -1.8829 -13.64
ltibia 31.2467
lfoot -23.7738 1.06654
ltoes 25.3837
85
root 19.5959 16.8449 -18.4307 7.2183 6.20983 -0.635865
lowerback -3.13164 5.27612 -1.36217
upperback -2.90472 7.07924 0.907223
thorax -1.51928 3.58166 1.79192
lowerneck -0.84495 13.5894 9.22176
upperneck 10.3763 18.855 -7.95055
head 4.88533 9.33856 -2.77357
rclavicle 6.96647e-014 -5.96354e-015
rhumerus -60.3338 5.80292 -93.9404
rradius 84.9975
rwrist 19.2261
rhand 3.12657 -18.9941
rfingers 7.12502
rthumb 28.5815 -46.8291
lclavicle 6.96647e-014 -5.96354e-015
lhumerus -60.1015 -42.0147 128.842
lradius 66.6208
lwrist 13.5752
lhand 29.0768 36.9124
lfingers 7.12502
lthumb 52.8751 56.4836
rfemur -17.3216 8.72959 19.1288
rtibia 31.5812
rfoot -24.3259 -27.7704
rtoes 10.5627
lfemur -17.8492 -1.9044 -13.7403
ltibia 31.2239
lfoot -23.8 1.3041
ltoes 25.2828
86
root 19.6223 16.8478 -18.4388 7.31275 6.02425 -0.646309
lowerback -3.24385 5.30324 -1.47786
upperback -2.93415 7.11936 0.940351
thorax -1.50755 3.60469 1.89815
lowerneck -1.29145 13.5423 9.31482
upperneck 11.4532 18.8446 -7.93597
head 5.29869 9.31224 -2.71259
rclavicle -1.76887e-015 -1.98785e-015
rhumerus -59.9828 6.13607 -94.2124
rradius 85.1578
rwrist 16.7415
rhand 2.68487 -19.1806
rfingers 7.12502
rthumb 28.1594 -47.0858
lclavicle -1.76887e-015 -1.98785e-015
lhumerus -59.8932 -42.0073 128.892
lradius 66.5017
lwrist 13.8327
lhand 29.501 37.5314
lfingers 7.12502
lthumb 53.2577 56.8592
rfemur -17.432 8.91531 18.989
rtibia 31.4952
rfoot -24.2195 -27.7326
rtoes 10.5263
lfemur -17.9166 -1.92098 -13.8468
ltibia 31.2077
lfoot -23.8329 1.55282
ltoes 25.1587
87
root 19.6487 16.8505 -18.4475 7.40587 5.81853 -0.652981
lowerback -3.36351 5.32405 -1.60379
upperback -2.95393 7.15165 0.983031
thorax -1.48412 3.62393 2.021
lowerneck -1.799 13.4792 9.35762
upperneck 12.6314 18.8157 -7.87922
head 5.74664 9.27308 -2.62848
rclavicle 7.1286e-014 1.19271e-015
rhumerus -59.5681 6.51745 -94.4715
rradius 85.3236
rwrist 14.1017
rhand 2.1422 -19.3786
rfingers 7.12502
rthumb 27.6406 -47.3681
lclavicle 7.1286e-014 1.19271e-015
lhumerus -59.6843 -41.9892 128.929
lradius 66.4007
lwrist 14.0776
lhand 29.8938 38.1495
lfingers 7.12502
lthumb 53.6114 57.2469
rfemur -17.5508 9.06954 18.8427
rtibia 31.4143
rfoot -24.1222 -27.6472
rtoes 10.4947
lfemur -17.9829 -1.92733 -13.9589
ltibia 31.195
lfoot -23.8514 1.8179
ltoes 24.9965
88
root 19.6748 16.8533 -18.4568 7.49601 5.5962 -0.65345
lowerback -3.48676 5.33749 -1.73746
upperback -2.96184 7.17456 1.03017
thorax -1.44774 3.63841 2.15368
lowerneck -2.34598 13.3947 9.34489
upperneck 13.857 18.7592 -7.78758
head 6.20929 9.21714 -2.52715
rclavicle 5.19216e-014 -5.1684e-015
rhumerus -59.0756 6.94423 -94.7202
rradius 85.4831
rwrist 11.4424
rhand 1.39865 -19.5897
rfingers 7.12502
rthumb 26.9293 -47.691
lclavicle 5.19216e-014 -5.1684e-015
lhumerus -59.4758 -41.9568 128.939
lradius 66.3231
lwrist 14.2892
lhand 30.3095 38.8056
lfingers 7.12502
lthumb 53.985 57.6538
rfemur -17.6755 9.19986 18.6883
rtibia 31.3382
rfoot -24.0302 -27.525
rtoes 10.4654
lfemur -18.0479 -1.92259 -14.0778
ltibia 31.1844
lfoot -23.8438 2.10051
ltoes 24.7706
89
root 19.7009 16.8561 -18.4668 7.58324 5.36698 -0.648809
lowerback -3.61251 5.33899 -1.87148
upperback -2.95535 7.18184 1.0793
thorax -1.39474 3.64469 2.28968
lowerneck -2.90691 13.2848 9.2741
upperneck 15.066 18.6691 -7.67933
head 6.66381 9.14181 -2.41828
rclavicle 1.54317e-013 1.59028e-014
rhumerus -58.4977 7.42072 -94.9643
rradius 85.6268
rwrist 8.94065
rhand 0.315535 -19.8111
rfingers 7.12502
rthumb 25.8926 -48.0681
lclavicle 1.54317e-013 1.59028e-014
lhumerus -59.2641 -41.9074 128.908
lradius 66.2805
lwrist 14.4649
lhand 30.7148 39.2083
lfingers 7.12502
lthumb 54.3485 57.808
rfemur -17.8047 9.30526 18.5282
rtibia 31.267
rfoot -23.9503 -27.3761
rtoes 10.4541
lfemur -18.1143 -1.90535 -14.2024
ltibia 31.1746
lfoot -23.8131 2.38219
ltoes 24.5259
90
root 19.7268 16.8589 -18.4777 7.66811 5.13575 -0.645269
lowerback -3.73962 5.32838 -1.99788
upperback -2.93393 7.17301 1.12912
thorax -1.32384 3.64227 2.42327
lowerneck -3.45077 13.1443 9.15537
upperneck 16.1987 18.5383 -7.57774
head 7.08858 9.04449 -2.31504
rclavicle -1.36745e-013 -2.50469e-014
rhumerus -57.8246 7.94282 -95.2037
rradius 85.7359
rwrist 6.81423
rhand -1.15439 -19.9869
rfingers 7.12502
rthumb 24.4842 -48.4419
lclavicle -1.36745e-013 -2.50469e-014
lhumerus -59.0525 -41.8418 128.829
lradius 66.2834
lwrist 14.6111
lhand 31.1769 39.613
lfingers 7.12502
lthumb 54.7618 57.9225
rfemur -17.9394 9.39176 18.3699
rtibia 31.199
rfoot -23.8739 -27.2092
rtoes 10.4596
lfemur -18.1843 -1.88653 -14.3247
ltibia 31.1659
lfoot -23.7931 2.64541
ltoes 24.3968
91
root 19.7526 16.8618 -18.4894 7.74513 4.91071 -0.634315
lowerback -3.8618 5.29973 -2.1198
upperback -2.89338 7.14011 1.17562
thorax -1.23346 3.62702 2.55149
lowerneck -3.95494 12.9746 8.996
upperneck 17.2031 18.3687 -7.5038
head 7.46502 8.92642 -2.22769
rclavicle -5.12348e-014 -1.07344e-014
rhumerus -57.0567 8.51639 -95.4451
rradius 85.7949
rwrist 5.30003
rhand -3.08445 -20.1021
rfingers 7.12502
rthumb 22.6329 -48.7951
lclavicle -5.12348e-014 -1.07344e-014
lhumerus -58.8325 -41.7531 128.686
lradius 66.3401
lwrist 14.7501
lhand 31.6521 39.8827
lfingers 7.12502
lthumb 55.1858 57.8861
rfemur -18.0709 9.45413 18.2066
rtibia 31.1347
rfoot -23.8087 -27.0308
rtoes 10.4875
lfemur -18.2518 -1.86452 -14.4546
ltibia 31.157
lfoot -23.7899 2.87663
ltoes 24.3441
92
root 19.7783 16.8647 -18.5022 7.81199 4.69788 -0.620247
lowerback -3.97259 5.25241 -2.23151
upperback -2.83522 7.08202 1.21847
thorax -1.12768 3.59827 2.67004
lowerneck -4.39928 12.7756 8.81172
upperneck 18.0445 18.1602 -7.47638
head 7.7804 8.78835 -2.16644
rclavicle 2.2889e-014 7.95139e-016
rhumerus -56.205 9.14588 -95.6963
rradius 85.7827
rwrist 4.64333
rhand -5.54295 -20.1272
rfingers 7.12502
rthumb 20.2717 -49.0894
lclavicle 2.2889e-014 7.95139e-016
lhumerus -58.6174 -41.6407 128.485
lradius 66.4656
lwrist 14.9048
lhand 32.1434 40.1997
lfingers 7.12502
lthumb 55.6229 57.878
rfemur -18.1964 9.49544 18.0437
rtibia 31.0729
rfoot -23.7444 -26.8461
rtoes 10.5272
lfemur -18.3175 -1.83114 -14.5879
ltibia 31.1485
lfoot -23.801 3.06724
ltoes 24.3639
93
root 19.804 16.8675 -18.5159 7.8683 4.4994 -0.604176
lowerback -4.06821 5.18431 -2.32989
upperback -2.76087 6.99573 1.25697
thorax -1.00925 3.55447 2.77583
lowerneck -4.78453 12.5527 8.61223
upperneck 18.7179 17.9188 -7.49848
head 8.03328 8.63364 -2.13273
rclavicle 5.33783e-014 -7.55382e-015
rhumerus -55.2788 9.83776 -95.9576
rradius 85.6873
rwrist 4.9916
rhand -8.56107 -20.0768
rfingers 7.12502
rthumb 17.3689 -49.3208
lclavicle 5.33783e-014 -7.55382e-015
lhumerus -58.4045 -41.4979 128.222
lradius 66.6622
lwrist 15.0989
lhand 32.6032 40.4107
lfingers 7.12502
lthumb 56.0309 57.7765
rfemur -18.3159 9.50918 17.8832
rtibia 31.0145
rfoot -23.6821 -26.651
rtoes 10.5789
lfemur -18.3791 -1.80073 -14.7223
ltibia 31.1389
lfoot -23.8234 3.22979
ltoes 24.425
94
root 19.8297 16.8702 -18.5307 7.91206 4.30957 -0.592244
lowerback -4.1437 5.09589 -2.4144
upperback -2.67315 6.88171 1.29525
thorax -0.884196 3.49602 2.87196
lowerneck -5.10089 12.31 8.41186
upperneck 19.2155 17.6503 -7.58024
head 8.22063 8.46577 -2.13157
rclavicle 7.51468e-014 3.97569e-016
rhumerus -54.2936 10.5953 -96.222
rradius 85.5066
rwrist 6.38766
rhand -11.7882 -20.0349
rfingers 7.12502
rthumb 14.2611 -49.5252
lclavicle 7.51468e-014 3.97569e-016
lhumerus -58.197 -41.3191 127.907
lradius 66.9307
lwrist 15.3392
lhand 33.0337 40.6445
lfingers 7.12502
lthumb 56.4118 57.7102
rfemur -18.4275 9.49733 17.732
rtibia 30.9582
rfoot -23.6243 -26.444
rtoes 10.6393
lfemur -18.4333 -1.76843 -14.8518
ltibia 31.1295
lfoot -23.8595 3.37186
ltoes 24.5198
